{
  "accessors": [
    {
      "bufferView": 2,
      "componentType": 5126,
      "count": 65532,
      "max": [
        3.2270269393920898,
        3.2703094482421875,
        5.4148678779602051
      ],
      "min": [
        0.89665102958679199,
        0.12916374206542969,
        0.39170598983764648
      ],
      "type": "VEC3"
    },
    {
      "bufferView": 2,
      "byteOffset": 786384,
      "componentType": 5126,
      "count": 65532,
      "max": [
        0.99998939037322998,
        0.99966317415237427,
        0.9998781681060791
      ],
      "min": [
        -0.99986773729324341,
        -0.99998515844345093,
        -0.99982935190200806
      ],
      "type": "VEC3"
    },
    {
      "bufferView": 1,
      "componentType": 5126,
      "count": 65532,
      "max": [
        0.99890202283859253,
        0.99986302852630615
      ],
      "min": [
        0.0084039997309446335,
        0.0034199999645352364
      ],
      "type": "VEC2"
    },
    {
      "bufferView": 0,
      "componentType": 5125,
      "count": 363633,
      "max": [
        65531
      ],
      "min": [
        0
      ],
      "type": "SCALAR"
    },
    {
      "bufferView": 2,
      "byteOffset": 1572768,
      "componentType": 5126,
      "count": 65532,
      "max": [
        2.9417209625244141,
        3.945500373840332,
        5.3123817443847656
      ],
      "min": [
        0.29980707168579102,
        0.0053720474243164062,
        0.13662600517272949
      ],
      "type": "VEC3"
    },
    {
      "bufferView": 2,
      "byteOffset": 2359152,
      "componentType": 5126,
      "count": 65532,
      "max": [
        0.99533760547637939,
        0.99997472763061523,
        0.99980741739273071
      ],
      "min": [
        -0.99988299608230591,
        -0.99998229742050171,
        -0.99993067979812622
      ],
      "type": "VEC3"
    },
    {
      "bufferView": 1,
      "byteOffset": 524256,
      "componentType": 5126,
      "count": 65532,
      "max": [
        0.99885201454162598,
        0.99969398975372314
      ],
      "min": [
        0.0040549999102950096,
        0.0027940000873059034
      ],
      "type": "VEC2"
    },
    {
      "bufferView": 0,
      "byteOffset": 1454532,
      "componentType": 5125,
      "count": 340407,
      "max": [
        65531
      ],
      "min": [
        0
      ],
      "type": "SCALAR"
    },
    {
      "bufferView": 2,
      "byteOffset": 3145536,
      "componentType": 5126,
      "count": 65532,
      "max": [
        1.7608940601348877,
        3.9254674911499023,
        5.1279916763305664
      ],
      "min": [
        0.049865007400512695,
        0.18504238128662109,
        0.28402090072631836
      ],
      "type": "VEC3"
    },
    {
      "bufferView": 2,
      "byteOffset": 3931920,
      "componentType": 5126,
      "count": 65532,
      "max": [
        0.9800446629524231,
        0.99991136789321899,
        0.99940484762191772
      ],
      "min": [
        -0.99999988079071045,
        -0.99998539686203003,
        -0.9998553991317749
      ],
      "type": "VEC3"
    },
    {
      "bufferView": 1,
      "byteOffset": 1048512,
      "componentType": 5126,
      "count": 65532,
      "max": [
        0.99107301235198975,
        1.0001050233840942
      ],
      "min": [
        0.0035149999894201756,
        0.0028639999218285084
      ],
      "type": "VEC2"
    },
    {
      "bufferView": 0,
      "byteOffset": 2816160,
      "componentType": 5125,
      "count": 340692,
      "max": [
        65531
      ],
      "min": [
        0
      ],
      "type": "SCALAR"
    },
    {
      "bufferView": 2,
      "byteOffset": 4718304,
      "componentType": 5126,
      "count": 36441,
      "max": [
        0.97159004211425781,
        3.6979207992553711,
        5.1943635940551758
      ],
      "min": [
        0,
        0.42083263397216797,
        0.67627489566802979
      ],
      "type": "VEC3"
    },
    {
      "bufferView": 2,
      "byteOffset": 5155596,
      "componentType": 5126,
      "count": 36441,
      "max": [
        0.99911379814147949,
        0.9997822642326355,
        0.99996620416641235
      ],
      "min": [
        -0.99998831748962402,
        -0.99973905086517334,
        -0.99987125396728516
      ],
      "type": "VEC3"
    },
    {
      "bufferView": 1,
      "byteOffset": 1572768,
      "componentType": 5126,
      "count": 36441,
      "max": [
        0.67156797647476196,
        0.99909800291061401
      ],
      "min": [
        0.010440999642014503,
        0.028333999216556549
      ],
      "type": "VEC2"
    },
    {
      "bufferView": 0,
      "byteOffset": 4178928,
      "componentType": 5125,
      "count": 184476,
      "max": [
        36440
      ],
      "min": [
        0
      ],
      "type": "SCALAR"
    },
    {
      "bufferView": 2,
      "byteOffset": 5592888,
      "componentType": 5126,
      "count": 65532,
      "max": [
        3.2270269393920898,
        3.7247505187988281,
        5.4051647186279297
      ],
      "min": [
        0.44692206382751465,
        0.002407073974609375,
        0.19294881820678711
      ],
      "type": "VEC3"
    },
    {
      "bufferView": 2,
      "byteOffset": 6379272,
      "componentType": 5126,
      "count": 65532,
      "max": [
        0.99997860193252563,
        0.99997705221176147,
        0.99989539384841919
      ],
      "min": [
        -0.99999648332595825,
        -0.99995565414428711,
        -0.99997109174728394
      ],
      "type": "VEC3"
    },
    {
      "bufferView": 1,
      "byteOffset": 1864296,
      "componentType": 5126,
      "count": 65532,
      "max": [
        0.99602901935577393,
        0.99959897994995117
      ],
      "min": [
        0.00036199999158270657,
        0.0031719999387860298
      ],
      "type": "VEC2"
    },
    {
      "bufferView": 0,
      "byteOffset": 4916832,
      "componentType": 5125,
      "count": 342786,
      "max": [
        65531
      ],
      "min": [
        0
      ],
      "type": "SCALAR"
    },
    {
      "bufferView": 2,
      "byteOffset": 7165656,
      "componentType": 5126,
      "count": 65532,
      "max": [
        3.050570011138916,
        3.707249641418457,
        5.3329696655273438
      ],
      "min": [
        0.88219106197357178,
        0,
        0.020598888397216797
      ],
      "type": "VEC3"
    },
    {
      "bufferView": 2,
      "byteOffset": 7952040,
      "componentType": 5126,
      "count": 65532,
      "max": [
        0.99998581409454346,
        0.99997961521148682,
        0.99976193904876709
      ],
      "min": [
        -0.99983733892440796,
        -0.99998188018798828,
        -0.99999356269836426
      ],
      "type": "VEC3"
    },
    {
      "bufferView": 1,
      "byteOffset": 2388552,
      "componentType": 5126,
      "count": 65532,
      "max": [
        0.98198598623275757,
        0.99866402149200439
      ],
      "min": [
        0.019408000633120537,
        0.0034880000166594982
      ],
      "type": "VEC2"
    },
    {
      "bufferView": 0,
      "byteOffset": 6287976,
      "componentType": 5125,
      "count": 328872,
      "max": [
        65531
      ],
      "min": [
        0
      ],
      "type": "SCALAR"
    },
    {
      "bufferView": 2,
      "byteOffset": 8738424,
      "componentType": 5126,
      "count": 65532,
      "max": [
        2.5688591003417969,
        3.7136907577514648,
        5.032872200012207
      ],
      "min": [
        0.11758601665496826,
        0.003490447998046875,
        0
      ],
      "type": "VEC3"
    },
    {
      "bufferView": 2,
      "byteOffset": 9524808,
      "componentType": 5126,
      "count": 65532,
      "max": [
        0.99992340803146362,
        0.99996703863143921,
        0.99970114231109619
      ],
      "min": [
        -0.9998587965965271,
        -0.99995899200439453,
        -0.99999356269836426
      ],
      "type": "VEC3"
    },
    {
      "bufferView": 1,
      "byteOffset": 2912808,
      "componentType": 5126,
      "count": 65532,
      "max": [
        0.99585497379302979,
        0.99935901165008545
      ],
      "min": [
        0.0036190000828355551,
        0.0036390000022947788
      ],
      "type": "VEC2"
    },
    {
      "bufferView": 0,
      "byteOffset": 7603464,
      "componentType": 5125,
      "count": 327471,
      "max": [
        65531
      ],
      "min": [
        0
      ],
      "type": "SCALAR"
    },
    {
      "bufferView": 2,
      "byteOffset": 10311192,
      "componentType": 5126,
      "count": 13328,
      "max": [
        1.6521960496902466,
        3.4502058029174805,
        5.2898950576782227
      ],
      "min": [
        0.036514043807983398,
        0.27239894866943359,
        0.36330389976501465
      ],
      "type": "VEC3"
    },
    {
      "bufferView": 2,
      "byteOffset": 10471128,
      "componentType": 5126,
      "count": 13328,
      "max": [
        0.99996566772460938,
        0.99980813264846802,
        0.99969339370727539
      ],
      "min": [
        -0.99997621774673462,
        -0.99997943639755249,
        -0.9999050498008728
      ],
      "type": "VEC3"
    },
    {
      "bufferView": 1,
      "byteOffset": 3437064,
      "componentType": 5126,
      "count": 13328,
      "max": [
        0.96939301490783691,
        0.99930101633071899
      ],
      "min": [
        0.0039659999310970306,
        0.18257400393486023
      ],
      "type": "VEC2"
    },
    {
      "bufferView": 0,
      "byteOffset": 8913348,
      "componentType": 5125,
      "count": 60642,
      "max": [
        13327
      ],
      "min": [
        0
      ],
      "type": "SCALAR"
    }
  ],
  "asset": {
    "extras": {
      "author": "savielsa (https://sketchfab.com/savielsa)",
      "license": "CC-BY-4.0 (http://creativecommons.org/licenses/by/4.0/)",
      "source": "https://sketchfab.com/3d-models/testa-di-apollo-d75770c2eb5542cda5d8eb0850b8da90",
      "title": "Testa di Apollo"
    },
    "generator": "Sketchfab-7.82.0",
    "version": "2.0"
  },
  "bufferViews": [
    {
      "buffer": 0,
      "byteLength": 9155916,
      "byteOffset": 0,
      "name": "floatBufferViews",
      "target": 34963
    },
    {
      "buffer": 0,
      "byteLength": 3543688,
      "byteOffset": 9155916,
      "byteStride": 8,
      "name": "floatBufferViews",
      "target": 34962
    },
    {
      "buffer": 0,
      "byteLength": 10631064,
      "byteOffset": 12699604,
      "byteStride": 12,
      "name": "floatBufferViews",
      "target": 34962
    }
  ],
  "buffers": [
    {
      "byteLength": 23330668,
      "uri": "scene.bin"
    }
  ],
  "images": [
    {
      "uri": "textures/material_0_baseColor.jpeg"
    },
    {
      "uri": "textures/material_1_baseColor.jpeg"
    }
  ],
  "materials": [
    {
      "doubleSided": true,
      "emissiveFactor": [
        0,
        0,
        0
      ],
      "name": "material_0",
      "pbrMetallicRoughness": {
        "baseColorFactor": [
          1,
          1,
          1,
          1
        ],
        "baseColorTexture": {
          "index": 0,
          "texCoord": 0
        },
        "metallicFactor": 0,
        "roughnessFactor": 0.59999999999999998
      }
    },
    {
      "doubleSided": true,
      "emissiveFactor": [
        0,
        0,
        0
      ],
      "name": "material_1",
      "pbrMetallicRoughness": {
        "baseColorFactor": [
          1,
          1,
          1,
          1
        ],
        "baseColorTexture": {
          "index": 1,
          "texCoord": 0
        },
        "metallicFactor": 0,
        "roughnessFactor": 0.59999999999999998
      }
    }
  ],
  "meshes": [
    {
      "primitives": [
        {
          "attributes": {
            "NORMAL": 1,
            "POSITION": 0,
            "TEXCOORD_0": 2
          },
          "indices": 3,
          "material": 0,
          "mode": 4
        }
      ]
    },
    {
      "primitives": [
        {
          "attributes": {
            "NORMAL": 5,
            "POSITION": 4,
            "TEXCOORD_0": 6
          },
          "indices": 7,
          "material": 0,
          "mode": 4
        }
      ]
    },
    {
      "primitives": [
        {
          "attributes": {
            "NORMAL": 9,
            "POSITION": 8,
            "TEXCOORD_0": 10
          },
          "indices": 11,
          "material": 0,
          "mode": 4
        }
      ]
    },
    {
      "primitives": [
        {
          "attributes": {
            "NORMAL": 13,
            "POSITION": 12,
            "TEXCOORD_0": 14
          },
          "indices": 15,
          "material": 0,
          "mode": 4
        }
      ]
    },
    {
      "primitives": [
        {
          "attributes": {
            "NORMAL": 17,
            "POSITION": 16,
            "TEXCOORD_0": 18
          },
          "indices": 19,
          "material": 1,
          "mode": 4
        }
      ]
    },
    {
      "primitives": [
        {
          "attributes": {
            "NORMAL": 21,
            "POSITION": 20,
            "TEXCOORD_0": 22
          },
          "indices": 23,
          "material": 1,
          "mode": 4
        }
      ]
    },
    {
      "primitives": [
        {
          "attributes": {
            "NORMAL": 25,
            "POSITION": 24,
            "TEXCOORD_0": 26
          },
          "indices": 27,
          "material": 1,
          "mode": 4
        }
      ]
    },
    {
      "primitives": [
        {
          "attributes": {
            "NORMAL": 29,
            "POSITION": 28,
            "TEXCOORD_0": 30
          },
          "indices": 31,
          "material": 1,
          "mode": 4
        }
      ]
    }
  ],
  "nodes": [
    {
      "children": [
        1
      ],
      "name": "RootNode (gltf orientation matrix)",
      "rotation": [
        -0.70710678118654746,
        -0,
        -0,
        0.70710678118654757
      ]
    },
    {
      "children": [
        2
      ],
      "matrix": [
        -0.73461377620697021,
        0.67848551273345947,
        -2.6004618902675247e-08,
        0,
        0.61237472295761108,
        0.66303396224975586,
        0.43056142330169678,
        0,
        0.29212969541549683,
        0.31629633903503418,
        -0.9025612473487854,
        0,
        0.79983878135681152,
        -1.2863399982452393,
        4.3016366958618164,
        1
      ],
      "name": "RootNode (model correction matrix)"
    },
    {
      "children": [
        3,
        4,
        5,
        6,
        7,
        8,
        9,
        10
      ],
      "name": "Apollo.obj.cleaner.gles"
    },
    {
      "mesh": 0,
      "name": ""
    },
    {
      "mesh": 1,
      "name": ""
    },
    {
      "mesh": 2,
      "name": ""
    },
    {
      "mesh": 3,
      "name": ""
    },
    {
      "mesh": 4,
      "name": ""
    },
    {
      "mesh": 5,
      "name": ""
    },
    {
      "mesh": 6,
      "name": ""
    },
    {
      "mesh": 7,
      "name": ""
    }
  ],
  "samplers": [
    {
      "magFilter": 9729,
      "minFilter": 9987,
      "wrapS": 10497,
      "wrapT": 10497
    }
  ],
  "scene": 0,
  "scenes": [
    {
      "name": "OSG_Scene",
      "nodes": [
        0
      ]
    }
  ],
  "textures": [
    {
      "sampler": 0,
      "source": 0
    },
    {
      "sampler": 0,
      "source": 1
    }
  ]
}

